<?xml version="1.0" encoding="utf-8" standalone="no"?>
<!DOCTYPE svg PUBLIC "-//W3C//DTD SVG 1.1//EN"
  "http://www.w3.org/Graphics/SVG/1.1/DTD/svg11.dtd">
<svg xmlns:xlink="http://www.w3.org/1999/xlink" width="864pt" height="216pt" viewBox="0 0 864 216" xmlns="http://www.w3.org/2000/svg" version="1.1">
 <metadata>
  <rdf:RDF xmlns:dc="http://purl.org/dc/elements/1.1/" xmlns:cc="http://creativecommons.org/ns#" xmlns:rdf="http://www.w3.org/1999/02/22-rdf-syntax-ns#">
   <cc:Work>
    <dc:type rdf:resource="http://purl.org/dc/dcmitype/StillImage"/>
    <dc:date>2022-06-05T22:31:50.131325</dc:date>
    <dc:format>image/svg+xml</dc:format>
    <dc:creator>
     <cc:Agent>
      <dc:title>Matplotlib v3.5.1, https://matplotlib.org/</dc:title>
     </cc:Agent>
    </dc:creator>
   </cc:Work>
  </rdf:RDF>
 </metadata>
 <defs>
  <style type="text/css">*{stroke-linejoin: round; stroke-linecap: butt}</style>
 </defs>
 <g id="figure_1">
  <g id="patch_1">
   <path d="M 0 216 
L 864 216 
L 864 0 
L 0 0 
L 0 216 
z
" style="fill: none"/>
  </g>
  <g id="axes_1">
   <g id="patch_2">
    <path d="M 108 189 
L 777.6 189 
L 777.6 25.92 
L 108 25.92 
z
" style="fill: #ffffff"/>
   </g>
   <g id="QuadMesh_1">
    <path d="M 108 25.92 
L 118.4625 25.92 
L 118.4625 66.69 
L 108 66.69 
L 108 25.92 
" clip-path="url(#p9ec3e08ef4)" style="fill: #fde725; stroke: #000000"/>
    <path d="M 118.4625 25.92 
L 128.925 25.92 
L 128.925 66.69 
L 118.4625 66.69 
L 118.4625 25.92 
" clip-path="url(#p9ec3e08ef4)" style="fill: #440154; stroke: #000000"/>
    <path d="M 128.925 25.92 
L 139.3875 25.92 
L 139.3875 66.69 
L 128.925 66.69 
L 128.925 25.92 
" clip-path="url(#p9ec3e08ef4)" style="fill: #440154; stroke: #000000"/>
    <path d="M 139.3875 25.92 
L 149.85 25.92 
L 149.85 66.69 
L 139.3875 66.69 
L 139.3875 25.92 
" clip-path="url(#p9ec3e08ef4)" style="fill: #440154; stroke: #000000"/>
    <path d="M 149.85 25.92 
L 160.3125 25.92 
L 160.3125 66.69 
L 149.85 66.69 
L 149.85 25.92 
" clip-path="url(#p9ec3e08ef4)" style="fill: #fde725; stroke: #000000"/>
    <path d="M 160.3125 25.92 
L 170.775 25.92 
L 170.775 66.69 
L 160.3125 66.69 
L 160.3125 25.92 
" clip-path="url(#p9ec3e08ef4)" style="fill: #440154; stroke: #000000"/>
    <path d="M 170.775 25.92 
L 181.2375 25.92 
L 181.2375 66.69 
L 170.775 66.69 
L 170.775 25.92 
" clip-path="url(#p9ec3e08ef4)" style="fill: #fde725; stroke: #000000"/>
    <path d="M 181.2375 25.92 
L 191.7 25.92 
L 191.7 66.69 
L 181.2375 66.69 
L 181.2375 25.92 
" clip-path="url(#p9ec3e08ef4)" style="fill: #440154; stroke: #000000"/>
    <path d="M 191.7 25.92 
L 202.1625 25.92 
L 202.1625 66.69 
L 191.7 66.69 
L 191.7 25.92 
" clip-path="url(#p9ec3e08ef4)" style="fill: #fde725; stroke: #000000"/>
    <path d="M 202.1625 25.92 
L 212.625 25.92 
L 212.625 66.69 
L 202.1625 66.69 
L 202.1625 25.92 
" clip-path="url(#p9ec3e08ef4)" style="fill: #440154; stroke: #000000"/>
    <path d="M 212.625 25.92 
L 223.0875 25.92 
L 223.0875 66.69 
L 212.625 66.69 
L 212.625 25.92 
" clip-path="url(#p9ec3e08ef4)" style="fill: #440154; stroke: #000000"/>
    <path d="M 223.0875 25.92 
L 233.55 25.92 
L 233.55 66.69 
L 223.0875 66.69 
L 223.0875 25.92 
" clip-path="url(#p9ec3e08ef4)" style="fill: #440154; stroke: #000000"/>
    <path d="M 233.55 25.92 
L 244.0125 25.92 
L 244.0125 66.69 
L 233.55 66.69 
L 233.55 25.92 
" clip-path="url(#p9ec3e08ef4)" style="fill: #fde725; stroke: #000000"/>
    <path d="M 244.0125 25.92 
L 254.475 25.92 
L 254.475 66.69 
L 244.0125 66.69 
L 244.0125 25.92 
" clip-path="url(#p9ec3e08ef4)" style="fill: #440154; stroke: #000000"/>
    <path d="M 254.475 25.92 
L 264.9375 25.92 
L 264.9375 66.69 
L 254.475 66.69 
L 254.475 25.92 
" clip-path="url(#p9ec3e08ef4)" style="fill: #fde725; stroke: #000000"/>
    <path d="M 264.9375 25.92 
L 275.4 25.92 
L 275.4 66.69 
L 264.9375 66.69 
L 264.9375 25.92 
" clip-path="url(#p9ec3e08ef4)" style="fill: #440154; stroke: #000000"/>
    <path d="M 275.4 25.92 
L 285.8625 25.92 
L 285.8625 66.69 
L 275.4 66.69 
L 275.4 25.92 
" clip-path="url(#p9ec3e08ef4)" style="fill: #fde725; stroke: #000000"/>
    <path d="M 285.8625 25.92 
L 296.325 25.92 
L 296.325 66.69 
L 285.8625 66.69 
L 285.8625 25.92 
" clip-path="url(#p9ec3e08ef4)" style="fill: #440154; stroke: #000000"/>
    <path d="M 296.325 25.92 
L 306.7875 25.92 
L 306.7875 66.69 
L 296.325 66.69 
L 296.325 25.92 
" clip-path="url(#p9ec3e08ef4)" style="fill: #fde725; stroke: #000000"/>
    <path d="M 306.7875 25.92 
L 317.25 25.92 
L 317.25 66.69 
L 306.7875 66.69 
L 306.7875 25.92 
" clip-path="url(#p9ec3e08ef4)" style="fill: #440154; stroke: #000000"/>
    <path d="M 317.25 25.92 
L 327.7125 25.92 
L 327.7125 66.69 
L 317.25 66.69 
L 317.25 25.92 
" clip-path="url(#p9ec3e08ef4)" style="fill: #fde725; stroke: #000000"/>
    <path d="M 327.7125 25.92 
L 338.175 25.92 
L 338.175 66.69 
L 327.7125 66.69 
L 327.7125 25.92 
" clip-path="url(#p9ec3e08ef4)" style="fill: #440154; stroke: #000000"/>
    <path d="M 338.175 25.92 
L 348.6375 25.92 
L 348.6375 66.69 
L 338.175 66.69 
L 338.175 25.92 
" clip-path="url(#p9ec3e08ef4)" style="fill: #fde725; stroke: #000000"/>
    <path d="M 348.6375 25.92 
L 359.1 25.92 
L 359.1 66.69 
L 348.6375 66.69 
L 348.6375 25.92 
" clip-path="url(#p9ec3e08ef4)" style="fill: #440154; stroke: #000000"/>
    <path d="M 359.1 25.92 
L 369.5625 25.92 
L 369.5625 66.69 
L 359.1 66.69 
L 359.1 25.92 
" clip-path="url(#p9ec3e08ef4)" style="fill: #fde725; stroke: #000000"/>
    <path d="M 369.5625 25.92 
L 380.025 25.92 
L 380.025 66.69 
L 369.5625 66.69 
L 369.5625 25.92 
" clip-path="url(#p9ec3e08ef4)" style="fill: #440154; stroke: #000000"/>
    <path d="M 380.025 25.92 
L 390.4875 25.92 
L 390.4875 66.69 
L 380.025 66.69 
L 380.025 25.92 
" clip-path="url(#p9ec3e08ef4)" style="fill: #fde725; stroke: #000000"/>
    <path d="M 390.4875 25.92 
L 400.95 25.92 
L 400.95 66.69 
L 390.4875 66.69 
L 390.4875 25.92 
" clip-path="url(#p9ec3e08ef4)" style="fill: #440154; stroke: #000000"/>
    <path d="M 400.95 25.92 
L 411.4125 25.92 
L 411.4125 66.69 
L 400.95 66.69 
L 400.95 25.92 
" clip-path="url(#p9ec3e08ef4)" style="fill: #fde725; stroke: #000000"/>
    <path d="M 411.4125 25.92 
L 421.875 25.92 
L 421.875 66.69 
L 411.4125 66.69 
L 411.4125 25.92 
" clip-path="url(#p9ec3e08ef4)" style="fill: #440154; stroke: #000000"/>
    <path d="M 421.875 25.92 
L 432.3375 25.92 
L 432.3375 66.69 
L 421.875 66.69 
L 421.875 25.92 
" clip-path="url(#p9ec3e08ef4)" style="fill: #fde725; stroke: #000000"/>
    <path d="M 432.3375 25.92 
L 442.8 25.92 
L 442.8 66.69 
L 432.3375 66.69 
L 432.3375 25.92 
" clip-path="url(#p9ec3e08ef4)" style="fill: #440154; stroke: #000000"/>
    <path d="M 442.8 25.92 
L 453.2625 25.92 
L 453.2625 66.69 
L 442.8 66.69 
L 442.8 25.92 
" clip-path="url(#p9ec3e08ef4)" style="fill: #fde725; stroke: #000000"/>
    <path d="M 453.2625 25.92 
L 463.725 25.92 
L 463.725 66.69 
L 453.2625 66.69 
L 453.2625 25.92 
" clip-path="url(#p9ec3e08ef4)" style="fill: #440154; stroke: #000000"/>
    <path d="M 463.725 25.92 
L 474.1875 25.92 
L 474.1875 66.69 
L 463.725 66.69 
L 463.725 25.92 
" clip-path="url(#p9ec3e08ef4)" style="fill: #440154; stroke: #000000"/>
    <path d="M 474.1875 25.92 
L 484.65 25.92 
L 484.65 66.69 
L 474.1875 66.69 
L 474.1875 25.92 
" clip-path="url(#p9ec3e08ef4)" style="fill: #440154; stroke: #000000"/>
    <path d="M 484.65 25.92 
L 495.1125 25.92 
L 495.1125 66.69 
L 484.65 66.69 
L 484.65 25.92 
" clip-path="url(#p9ec3e08ef4)" style="fill: #fde725; stroke: #000000"/>
    <path d="M 495.1125 25.92 
L 505.575 25.92 
L 505.575 66.69 
L 495.1125 66.69 
L 495.1125 25.92 
" clip-path="url(#p9ec3e08ef4)" style="fill: #440154; stroke: #000000"/>
    <path d="M 505.575 25.92 
L 516.0375 25.92 
L 516.0375 66.69 
L 505.575 66.69 
L 505.575 25.92 
" clip-path="url(#p9ec3e08ef4)" style="fill: #fde725; stroke: #000000"/>
    <path d="M 516.0375 25.92 
L 526.5 25.92 
L 526.5 66.69 
L 516.0375 66.69 
L 516.0375 25.92 
" clip-path="url(#p9ec3e08ef4)" style="fill: #440154; stroke: #000000"/>
    <path d="M 526.5 25.92 
L 536.9625 25.92 
L 536.9625 66.69 
L 526.5 66.69 
L 526.5 25.92 
" clip-path="url(#p9ec3e08ef4)" style="fill: #fde725; stroke: #000000"/>
    <path d="M 536.9625 25.92 
L 547.425 25.92 
L 547.425 66.69 
L 536.9625 66.69 
L 536.9625 25.92 
" clip-path="url(#p9ec3e08ef4)" style="fill: #440154; stroke: #000000"/>
    <path d="M 547.425 25.92 
L 557.8875 25.92 
L 557.8875 66.69 
L 547.425 66.69 
L 547.425 25.92 
" clip-path="url(#p9ec3e08ef4)" style="fill: #440154; stroke: #000000"/>
    <path d="M 557.8875 25.92 
L 568.35 25.92 
L 568.35 66.69 
L 557.8875 66.69 
L 557.8875 25.92 
" clip-path="url(#p9ec3e08ef4)" style="fill: #440154; stroke: #000000"/>
    <path d="M 568.35 25.92 
L 578.8125 25.92 
L 578.8125 66.69 
L 568.35 66.69 
L 568.35 25.92 
" clip-path="url(#p9ec3e08ef4)" style="fill: #fde725; stroke: #000000"/>
    <path d="M 578.8125 25.92 
L 589.275 25.92 
L 589.275 66.69 
L 578.8125 66.69 
L 578.8125 25.92 
" clip-path="url(#p9ec3e08ef4)" style="fill: #440154; stroke: #000000"/>
    <path d="M 589.275 25.92 
L 599.7375 25.92 
L 599.7375 66.69 
L 589.275 66.69 
L 589.275 25.92 
" clip-path="url(#p9ec3e08ef4)" style="fill: #fde725; stroke: #000000"/>
    <path d="M 599.7375 25.92 
L 610.2 25.92 
L 610.2 66.69 
L 599.7375 66.69 
L 599.7375 25.92 
" clip-path="url(#p9ec3e08ef4)" style="fill: #440154; stroke: #000000"/>
    <path d="M 610.2 25.92 
L 620.6625 25.92 
L 620.6625 66.69 
L 610.2 66.69 
L 610.2 25.92 
" clip-path="url(#p9ec3e08ef4)" style="fill: #fde725; stroke: #000000"/>
    <path d="M 620.6625 25.92 
L 631.125 25.92 
L 631.125 66.69 
L 620.6625 66.69 
L 620.6625 25.92 
" clip-path="url(#p9ec3e08ef4)" style="fill: #440154; stroke: #000000"/>
    <path d="M 631.125 25.92 
L 641.5875 25.92 
L 641.5875 66.69 
L 631.125 66.69 
L 631.125 25.92 
" clip-path="url(#p9ec3e08ef4)" style="fill: #fde725; stroke: #000000"/>
    <path d="M 641.5875 25.92 
L 652.05 25.92 
L 652.05 66.69 
L 641.5875 66.69 
L 641.5875 25.92 
" clip-path="url(#p9ec3e08ef4)" style="fill: #440154; stroke: #000000"/>
    <path d="M 652.05 25.92 
L 662.5125 25.92 
L 662.5125 66.69 
L 652.05 66.69 
L 652.05 25.92 
" clip-path="url(#p9ec3e08ef4)" style="fill: #fde725; stroke: #000000"/>
    <path d="M 662.5125 25.92 
L 672.975 25.92 
L 672.975 66.69 
L 662.5125 66.69 
L 662.5125 25.92 
" clip-path="url(#p9ec3e08ef4)" style="fill: #440154; stroke: #000000"/>
    <path d="M 672.975 25.92 
L 683.4375 25.92 
L 683.4375 66.69 
L 672.975 66.69 
L 672.975 25.92 
" clip-path="url(#p9ec3e08ef4)" style="fill: #fde725; stroke: #000000"/>
    <path d="M 683.4375 25.92 
L 693.9 25.92 
L 693.9 66.69 
L 683.4375 66.69 
L 683.4375 25.92 
" clip-path="url(#p9ec3e08ef4)" style="fill: #440154; stroke: #000000"/>
    <path d="M 693.9 25.92 
L 704.3625 25.92 
L 704.3625 66.69 
L 693.9 66.69 
L 693.9 25.92 
" clip-path="url(#p9ec3e08ef4)" style="fill: #fde725; stroke: #000000"/>
    <path d="M 704.3625 25.92 
L 714.825 25.92 
L 714.825 66.69 
L 704.3625 66.69 
L 704.3625 25.92 
" clip-path="url(#p9ec3e08ef4)" style="fill: #440154; stroke: #000000"/>
    <path d="M 714.825 25.92 
L 725.2875 25.92 
L 725.2875 66.69 
L 714.825 66.69 
L 714.825 25.92 
" clip-path="url(#p9ec3e08ef4)" style="fill: #fde725; stroke: #000000"/>
    <path d="M 725.2875 25.92 
L 735.75 25.92 
L 735.75 66.69 
L 725.2875 66.69 
L 725.2875 25.92 
" clip-path="url(#p9ec3e08ef4)" style="fill: #440154; stroke: #000000"/>
    <path d="M 735.75 25.92 
L 746.2125 25.92 
L 746.2125 66.69 
L 735.75 66.69 
L 735.75 25.92 
" clip-path="url(#p9ec3e08ef4)" style="fill: #fde725; stroke: #000000"/>
    <path d="M 746.2125 25.92 
L 756.675 25.92 
L 756.675 66.69 
L 746.2125 66.69 
L 746.2125 25.92 
" clip-path="url(#p9ec3e08ef4)" style="fill: #440154; stroke: #000000"/>
    <path d="M 756.675 25.92 
L 767.1375 25.92 
L 767.1375 66.69 
L 756.675 66.69 
L 756.675 25.92 
" clip-path="url(#p9ec3e08ef4)" style="fill: #fde725; stroke: #000000"/>
    <path d="M 767.1375 25.92 
L 777.6 25.92 
L 777.6 66.69 
L 767.1375 66.69 
L 767.1375 25.92 
" clip-path="url(#p9ec3e08ef4)" style="fill: #440154; stroke: #000000"/>
    <path d="M 108 66.69 
L 118.4625 66.69 
L 118.4625 107.46 
L 108 107.46 
L 108 66.69 
" clip-path="url(#p9ec3e08ef4)" style="fill: #fde725; stroke: #000000"/>
    <path d="M 118.4625 66.69 
L 128.925 66.69 
L 128.925 107.46 
L 118.4625 107.46 
L 118.4625 66.69 
" clip-path="url(#p9ec3e08ef4)" style="fill: #440154; stroke: #000000"/>
    <path d="M 128.925 66.69 
L 139.3875 66.69 
L 139.3875 107.46 
L 128.925 107.46 
L 128.925 66.69 
" clip-path="url(#p9ec3e08ef4)" style="fill: #440154; stroke: #000000"/>
    <path d="M 139.3875 66.69 
L 149.85 66.69 
L 149.85 107.46 
L 139.3875 107.46 
L 139.3875 66.69 
" clip-path="url(#p9ec3e08ef4)" style="fill: #440154; stroke: #000000"/>
    <path d="M 149.85 66.69 
L 160.3125 66.69 
L 160.3125 107.46 
L 149.85 107.46 
L 149.85 66.69 
" clip-path="url(#p9ec3e08ef4)" style="fill: #440154; stroke: #000000"/>
    <path d="M 160.3125 66.69 
L 170.775 66.69 
L 170.775 107.46 
L 160.3125 107.46 
L 160.3125 66.69 
" clip-path="url(#p9ec3e08ef4)" style="fill: #440154; stroke: #000000"/>
    <path d="M 170.775 66.69 
L 181.2375 66.69 
L 181.2375 107.46 
L 170.775 107.46 
L 170.775 66.69 
" clip-path="url(#p9ec3e08ef4)" style="fill: #440154; stroke: #000000"/>
    <path d="M 181.2375 66.69 
L 191.7 66.69 
L 191.7 107.46 
L 181.2375 107.46 
L 181.2375 66.69 
" clip-path="url(#p9ec3e08ef4)" style="fill: #440154; stroke: #000000"/>
    <path d="M 191.7 66.69 
L 202.1625 66.69 
L 202.1625 107.46 
L 191.7 107.46 
L 191.7 66.69 
" clip-path="url(#p9ec3e08ef4)" style="fill: #440154; stroke: #000000"/>
    <path d="M 202.1625 66.69 
L 212.625 66.69 
L 212.625 107.46 
L 202.1625 107.46 
L 202.1625 66.69 
" clip-path="url(#p9ec3e08ef4)" style="fill: #440154; stroke: #000000"/>
    <path d="M 212.625 66.69 
L 223.0875 66.69 
L 223.0875 107.46 
L 212.625 107.46 
L 212.625 66.69 
" clip-path="url(#p9ec3e08ef4)" style="fill: #440154; stroke: #000000"/>
    <path d="M 223.0875 66.69 
L 233.55 66.69 
L 233.55 107.46 
L 223.0875 107.46 
L 223.0875 66.69 
" clip-path="url(#p9ec3e08ef4)" style="fill: #440154; stroke: #000000"/>
    <path d="M 233.55 66.69 
L 244.0125 66.69 
L 244.0125 107.46 
L 233.55 107.46 
L 233.55 66.69 
" clip-path="url(#p9ec3e08ef4)" style="fill: #fde725; stroke: #000000"/>
    <path d="M 244.0125 66.69 
L 254.475 66.69 
L 254.475 107.46 
L 244.0125 107.46 
L 244.0125 66.69 
" clip-path="url(#p9ec3e08ef4)" style="fill: #440154; stroke: #000000"/>
    <path d="M 254.475 66.69 
L 264.9375 66.69 
L 264.9375 107.46 
L 254.475 107.46 
L 254.475 66.69 
" clip-path="url(#p9ec3e08ef4)" style="fill: #440154; stroke: #000000"/>
    <path d="M 264.9375 66.69 
L 275.4 66.69 
L 275.4 107.46 
L 264.9375 107.46 
L 264.9375 66.69 
" clip-path="url(#p9ec3e08ef4)" style="fill: #440154; stroke: #000000"/>
    <path d="M 275.4 66.69 
L 285.8625 66.69 
L 285.8625 107.46 
L 275.4 107.46 
L 275.4 66.69 
" clip-path="url(#p9ec3e08ef4)" style="fill: #fde725; stroke: #000000"/>
    <path d="M 285.8625 66.69 
L 296.325 66.69 
L 296.325 107.46 
L 285.8625 107.46 
L 285.8625 66.69 
" clip-path="url(#p9ec3e08ef4)" style="fill: #440154; stroke: #000000"/>
    <path d="M 296.325 66.69 
L 306.7875 66.69 
L 306.7875 107.46 
L 296.325 107.46 
L 296.325 66.69 
" clip-path="url(#p9ec3e08ef4)" style="fill: #440154; stroke: #000000"/>
    <path d="M 306.7875 66.69 
L 317.25 66.69 
L 317.25 107.46 
L 306.7875 107.46 
L 306.7875 66.69 
" clip-path="url(#p9ec3e08ef4)" style="fill: #440154; stroke: #000000"/>
    <path d="M 317.25 66.69 
L 327.7125 66.69 
L 327.7125 107.46 
L 317.25 107.46 
L 317.25 66.69 
" clip-path="url(#p9ec3e08ef4)" style="fill: #440154; stroke: #000000"/>
    <path d="M 327.7125 66.69 
L 338.175 66.69 
L 338.175 107.46 
L 327.7125 107.46 
L 327.7125 66.69 
" clip-path="url(#p9ec3e08ef4)" style="fill: #440154; stroke: #000000"/>
    <path d="M 338.175 66.69 
L 348.6375 66.69 
L 348.6375 107.46 
L 338.175 107.46 
L 338.175 66.69 
" clip-path="url(#p9ec3e08ef4)" style="fill: #440154; stroke: #000000"/>
    <path d="M 348.6375 66.69 
L 359.1 66.69 
L 359.1 107.46 
L 348.6375 107.46 
L 348.6375 66.69 
" clip-path="url(#p9ec3e08ef4)" style="fill: #440154; stroke: #000000"/>
    <path d="M 359.1 66.69 
L 369.5625 66.69 
L 369.5625 107.46 
L 359.1 107.46 
L 359.1 66.69 
" clip-path="url(#p9ec3e08ef4)" style="fill: #440154; stroke: #000000"/>
    <path d="M 369.5625 66.69 
L 380.025 66.69 
L 380.025 107.46 
L 369.5625 107.46 
L 369.5625 66.69 
" clip-path="url(#p9ec3e08ef4)" style="fill: #440154; stroke: #000000"/>
    <path d="M 380.025 66.69 
L 390.4875 66.69 
L 390.4875 107.46 
L 380.025 107.46 
L 380.025 66.69 
" clip-path="url(#p9ec3e08ef4)" style="fill: #440154; stroke: #000000"/>
    <path d="M 390.4875 66.69 
L 400.95 66.69 
L 400.95 107.46 
L 390.4875 107.46 
L 390.4875 66.69 
" clip-path="url(#p9ec3e08ef4)" style="fill: #440154; stroke: #000000"/>
    <path d="M 400.95 66.69 
L 411.4125 66.69 
L 411.4125 107.46 
L 400.95 107.46 
L 400.95 66.69 
" clip-path="url(#p9ec3e08ef4)" style="fill: #fde725; stroke: #000000"/>
    <path d="M 411.4125 66.69 
L 421.875 66.69 
L 421.875 107.46 
L 411.4125 107.46 
L 411.4125 66.69 
" clip-path="url(#p9ec3e08ef4)" style="fill: #440154; stroke: #000000"/>
    <path d="M 421.875 66.69 
L 432.3375 66.69 
L 432.3375 107.46 
L 421.875 107.46 
L 421.875 66.69 
" clip-path="url(#p9ec3e08ef4)" style="fill: #440154; stroke: #000000"/>
    <path d="M 432.3375 66.69 
L 442.8 66.69 
L 442.8 107.46 
L 432.3375 107.46 
L 432.3375 66.69 
" clip-path="url(#p9ec3e08ef4)" style="fill: #440154; stroke: #000000"/>
    <path d="M 442.8 66.69 
L 453.2625 66.69 
L 453.2625 107.46 
L 442.8 107.46 
L 442.8 66.69 
" clip-path="url(#p9ec3e08ef4)" style="fill: #fde725; stroke: #000000"/>
    <path d="M 453.2625 66.69 
L 463.725 66.69 
L 463.725 107.46 
L 453.2625 107.46 
L 453.2625 66.69 
" clip-path="url(#p9ec3e08ef4)" style="fill: #440154; stroke: #000000"/>
    <path d="M 463.725 66.69 
L 474.1875 66.69 
L 474.1875 107.46 
L 463.725 107.46 
L 463.725 66.69 
" clip-path="url(#p9ec3e08ef4)" style="fill: #440154; stroke: #000000"/>
    <path d="M 474.1875 66.69 
L 484.65 66.69 
L 484.65 107.46 
L 474.1875 107.46 
L 474.1875 66.69 
" clip-path="url(#p9ec3e08ef4)" style="fill: #440154; stroke: #000000"/>
    <path d="M 484.65 66.69 
L 495.1125 66.69 
L 495.1125 107.46 
L 484.65 107.46 
L 484.65 66.69 
" clip-path="url(#p9ec3e08ef4)" style="fill: #440154; stroke: #000000"/>
    <path d="M 495.1125 66.69 
L 505.575 66.69 
L 505.575 107.46 
L 495.1125 107.46 
L 495.1125 66.69 
" clip-path="url(#p9ec3e08ef4)" style="fill: #440154; stroke: #000000"/>
    <path d="M 505.575 66.69 
L 516.0375 66.69 
L 516.0375 107.46 
L 505.575 107.46 
L 505.575 66.69 
" clip-path="url(#p9ec3e08ef4)" style="fill: #440154; stroke: #000000"/>
    <path d="M 516.0375 66.69 
L 526.5 66.69 
L 526.5 107.46 
L 516.0375 107.46 
L 516.0375 66.69 
" clip-path="url(#p9ec3e08ef4)" style="fill: #440154; stroke: #000000"/>
    <path d="M 526.5 66.69 
L 536.9625 66.69 
L 536.9625 107.46 
L 526.5 107.46 
L 526.5 66.69 
" clip-path="url(#p9ec3e08ef4)" style="fill: #440154; stroke: #000000"/>
    <path d="M 536.9625 66.69 
L 547.425 66.69 
L 547.425 107.46 
L 536.9625 107.46 
L 536.9625 66.69 
" clip-path="url(#p9ec3e08ef4)" style="fill: #440154; stroke: #000000"/>
    <path d="M 547.425 66.69 
L 557.8875 66.69 
L 557.8875 107.46 
L 547.425 107.46 
L 547.425 66.69 
" clip-path="url(#p9ec3e08ef4)" style="fill: #440154; stroke: #000000"/>
    <path d="M 557.8875 66.69 
L 568.35 66.69 
L 568.35 107.46 
L 557.8875 107.46 
L 557.8875 66.69 
" clip-path="url(#p9ec3e08ef4)" style="fill: #440154; stroke: #000000"/>
    <path d="M 568.35 66.69 
L 578.8125 66.69 
L 578.8125 107.46 
L 568.35 107.46 
L 568.35 66.69 
" clip-path="url(#p9ec3e08ef4)" style="fill: #fde725; stroke: #000000"/>
    <path d="M 578.8125 66.69 
L 589.275 66.69 
L 589.275 107.46 
L 578.8125 107.46 
L 578.8125 66.69 
" clip-path="url(#p9ec3e08ef4)" style="fill: #440154; stroke: #000000"/>
    <path d="M 589.275 66.69 
L 599.7375 66.69 
L 599.7375 107.46 
L 589.275 107.46 
L 589.275 66.69 
" clip-path="url(#p9ec3e08ef4)" style="fill: #440154; stroke: #000000"/>
    <path d="M 599.7375 66.69 
L 610.2 66.69 
L 610.2 107.46 
L 599.7375 107.46 
L 599.7375 66.69 
" clip-path="url(#p9ec3e08ef4)" style="fill: #440154; stroke: #000000"/>
    <path d="M 610.2 66.69 
L 620.6625 66.69 
L 620.6625 107.46 
L 610.2 107.46 
L 610.2 66.69 
" clip-path="url(#p9ec3e08ef4)" style="fill: #fde725; stroke: #000000"/>
    <path d="M 620.6625 66.69 
L 631.125 66.69 
L 631.125 107.46 
L 620.6625 107.46 
L 620.6625 66.69 
" clip-path="url(#p9ec3e08ef4)" style="fill: #440154; stroke: #000000"/>
    <path d="M 631.125 66.69 
L 641.5875 66.69 
L 641.5875 107.46 
L 631.125 107.46 
L 631.125 66.69 
" clip-path="url(#p9ec3e08ef4)" style="fill: #440154; stroke: #000000"/>
    <path d="M 641.5875 66.69 
L 652.05 66.69 
L 652.05 107.46 
L 641.5875 107.46 
L 641.5875 66.69 
" clip-path="url(#p9ec3e08ef4)" style="fill: #440154; stroke: #000000"/>
    <path d="M 652.05 66.69 
L 662.5125 66.69 
L 662.5125 107.46 
L 652.05 107.46 
L 652.05 66.69 
" clip-path="url(#p9ec3e08ef4)" style="fill: #440154; stroke: #000000"/>
    <path d="M 662.5125 66.69 
L 672.975 66.69 
L 672.975 107.46 
L 662.5125 107.46 
L 662.5125 66.69 
" clip-path="url(#p9ec3e08ef4)" style="fill: #440154; stroke: #000000"/>
    <path d="M 672.975 66.69 
L 683.4375 66.69 
L 683.4375 107.46 
L 672.975 107.46 
L 672.975 66.69 
" clip-path="url(#p9ec3e08ef4)" style="fill: #440154; stroke: #000000"/>
    <path d="M 683.4375 66.69 
L 693.9 66.69 
L 693.9 107.46 
L 683.4375 107.46 
L 683.4375 66.69 
" clip-path="url(#p9ec3e08ef4)" style="fill: #440154; stroke: #000000"/>
    <path d="M 693.9 66.69 
L 704.3625 66.69 
L 704.3625 107.46 
L 693.9 107.46 
L 693.9 66.69 
" clip-path="url(#p9ec3e08ef4)" style="fill: #440154; stroke: #000000"/>
    <path d="M 704.3625 66.69 
L 714.825 66.69 
L 714.825 107.46 
L 704.3625 107.46 
L 704.3625 66.69 
" clip-path="url(#p9ec3e08ef4)" style="fill: #440154; stroke: #000000"/>
    <path d="M 714.825 66.69 
L 725.2875 66.69 
L 725.2875 107.46 
L 714.825 107.46 
L 714.825 66.69 
" clip-path="url(#p9ec3e08ef4)" style="fill: #440154; stroke: #000000"/>
    <path d="M 725.2875 66.69 
L 735.75 66.69 
L 735.75 107.46 
L 725.2875 107.46 
L 725.2875 66.69 
" clip-path="url(#p9ec3e08ef4)" style="fill: #440154; stroke: #000000"/>
    <path d="M 735.75 66.69 
L 746.2125 66.69 
L 746.2125 107.46 
L 735.75 107.46 
L 735.75 66.69 
" clip-path="url(#p9ec3e08ef4)" style="fill: #fde725; stroke: #000000"/>
    <path d="M 746.2125 66.69 
L 756.675 66.69 
L 756.675 107.46 
L 746.2125 107.46 
L 746.2125 66.69 
" clip-path="url(#p9ec3e08ef4)" style="fill: #440154; stroke: #000000"/>
    <path d="M 756.675 66.69 
L 767.1375 66.69 
L 767.1375 107.46 
L 756.675 107.46 
L 756.675 66.69 
" clip-path="url(#p9ec3e08ef4)" style="fill: #440154; stroke: #000000"/>
    <path d="M 767.1375 66.69 
L 777.6 66.69 
L 777.6 107.46 
L 767.1375 107.46 
L 767.1375 66.69 
" clip-path="url(#p9ec3e08ef4)" style="fill: #440154; stroke: #000000"/>
    <path d="M 108 107.46 
L 118.4625 107.46 
L 118.4625 148.23 
L 108 148.23 
L 108 107.46 
" clip-path="url(#p9ec3e08ef4)" style="fill: #fde725; stroke: #000000"/>
    <path d="M 118.4625 107.46 
L 128.925 107.46 
L 128.925 148.23 
L 118.4625 148.23 
L 118.4625 107.46 
" clip-path="url(#p9ec3e08ef4)" style="fill: #440154; stroke: #000000"/>
    <path d="M 128.925 107.46 
L 139.3875 107.46 
L 139.3875 148.23 
L 128.925 148.23 
L 128.925 107.46 
" clip-path="url(#p9ec3e08ef4)" style="fill: #440154; stroke: #000000"/>
    <path d="M 139.3875 107.46 
L 149.85 107.46 
L 149.85 148.23 
L 139.3875 148.23 
L 139.3875 107.46 
" clip-path="url(#p9ec3e08ef4)" style="fill: #440154; stroke: #000000"/>
    <path d="M 149.85 107.46 
L 160.3125 107.46 
L 160.3125 148.23 
L 149.85 148.23 
L 149.85 107.46 
" clip-path="url(#p9ec3e08ef4)" style="fill: #440154; stroke: #000000"/>
    <path d="M 160.3125 107.46 
L 170.775 107.46 
L 170.775 148.23 
L 160.3125 148.23 
L 160.3125 107.46 
" clip-path="url(#p9ec3e08ef4)" style="fill: #440154; stroke: #000000"/>
    <path d="M 170.775 107.46 
L 181.2375 107.46 
L 181.2375 148.23 
L 170.775 148.23 
L 170.775 107.46 
" clip-path="url(#p9ec3e08ef4)" style="fill: #440154; stroke: #000000"/>
    <path d="M 181.2375 107.46 
L 191.7 107.46 
L 191.7 148.23 
L 181.2375 148.23 
L 181.2375 107.46 
" clip-path="url(#p9ec3e08ef4)" style="fill: #440154; stroke: #000000"/>
    <path d="M 191.7 107.46 
L 202.1625 107.46 
L 202.1625 148.23 
L 191.7 148.23 
L 191.7 107.46 
" clip-path="url(#p9ec3e08ef4)" style="fill: #fde725; stroke: #000000"/>
    <path d="M 202.1625 107.46 
L 212.625 107.46 
L 212.625 148.23 
L 202.1625 148.23 
L 202.1625 107.46 
" clip-path="url(#p9ec3e08ef4)" style="fill: #440154; stroke: #000000"/>
    <path d="M 212.625 107.46 
L 223.0875 107.46 
L 223.0875 148.23 
L 212.625 148.23 
L 212.625 107.46 
" clip-path="url(#p9ec3e08ef4)" style="fill: #440154; stroke: #000000"/>
    <path d="M 223.0875 107.46 
L 233.55 107.46 
L 233.55 148.23 
L 223.0875 148.23 
L 223.0875 107.46 
" clip-path="url(#p9ec3e08ef4)" style="fill: #440154; stroke: #000000"/>
    <path d="M 233.55 107.46 
L 244.0125 107.46 
L 244.0125 148.23 
L 233.55 148.23 
L 233.55 107.46 
" clip-path="url(#p9ec3e08ef4)" style="fill: #fde725; stroke: #000000"/>
    <path d="M 244.0125 107.46 
L 254.475 107.46 
L 254.475 148.23 
L 244.0125 148.23 
L 244.0125 107.46 
" clip-path="url(#p9ec3e08ef4)" style="fill: #440154; stroke: #000000"/>
    <path d="M 254.475 107.46 
L 264.9375 107.46 
L 264.9375 148.23 
L 254.475 148.23 
L 254.475 107.46 
" clip-path="url(#p9ec3e08ef4)" style="fill: #440154; stroke: #000000"/>
    <path d="M 264.9375 107.46 
L 275.4 107.46 
L 275.4 148.23 
L 264.9375 148.23 
L 264.9375 107.46 
" clip-path="url(#p9ec3e08ef4)" style="fill: #440154; stroke: #000000"/>
    <path d="M 275.4 107.46 
L 285.8625 107.46 
L 285.8625 148.23 
L 275.4 148.23 
L 275.4 107.46 
" clip-path="url(#p9ec3e08ef4)" style="fill: #fde725; stroke: #000000"/>
    <path d="M 285.8625 107.46 
L 296.325 107.46 
L 296.325 148.23 
L 285.8625 148.23 
L 285.8625 107.46 
" clip-path="url(#p9ec3e08ef4)" style="fill: #440154; stroke: #000000"/>
    <path d="M 296.325 107.46 
L 306.7875 107.46 
L 306.7875 148.23 
L 296.325 148.23 
L 296.325 107.46 
" clip-path="url(#p9ec3e08ef4)" style="fill: #440154; stroke: #000000"/>
    <path d="M 306.7875 107.46 
L 317.25 107.46 
L 317.25 148.23 
L 306.7875 148.23 
L 306.7875 107.46 
" clip-path="url(#p9ec3e08ef4)" style="fill: #440154; stroke: #000000"/>
    <path d="M 317.25 107.46 
L 327.7125 107.46 
L 327.7125 148.23 
L 317.25 148.23 
L 317.25 107.46 
" clip-path="url(#p9ec3e08ef4)" style="fill: #fde725; stroke: #000000"/>
    <path d="M 327.7125 107.46 
L 338.175 107.46 
L 338.175 148.23 
L 327.7125 148.23 
L 327.7125 107.46 
" clip-path="url(#p9ec3e08ef4)" style="fill: #440154; stroke: #000000"/>
    <path d="M 338.175 107.46 
L 348.6375 107.46 
L 348.6375 148.23 
L 338.175 148.23 
L 338.175 107.46 
" clip-path="url(#p9ec3e08ef4)" style="fill: #440154; stroke: #000000"/>
    <path d="M 348.6375 107.46 
L 359.1 107.46 
L 359.1 148.23 
L 348.6375 148.23 
L 348.6375 107.46 
" clip-path="url(#p9ec3e08ef4)" style="fill: #440154; stroke: #000000"/>
    <path d="M 359.1 107.46 
L 369.5625 107.46 
L 369.5625 148.23 
L 359.1 148.23 
L 359.1 107.46 
" clip-path="url(#p9ec3e08ef4)" style="fill: #fde725; stroke: #000000"/>
    <path d="M 369.5625 107.46 
L 380.025 107.46 
L 380.025 148.23 
L 369.5625 148.23 
L 369.5625 107.46 
" clip-path="url(#p9ec3e08ef4)" style="fill: #440154; stroke: #000000"/>
    <path d="M 380.025 107.46 
L 390.4875 107.46 
L 390.4875 148.23 
L 380.025 148.23 
L 380.025 107.46 
" clip-path="url(#p9ec3e08ef4)" style="fill: #440154; stroke: #000000"/>
    <path d="M 390.4875 107.46 
L 400.95 107.46 
L 400.95 148.23 
L 390.4875 148.23 
L 390.4875 107.46 
" clip-path="url(#p9ec3e08ef4)" style="fill: #440154; stroke: #000000"/>
    <path d="M 400.95 107.46 
L 411.4125 107.46 
L 411.4125 148.23 
L 400.95 148.23 
L 400.95 107.46 
" clip-path="url(#p9ec3e08ef4)" style="fill: #fde725; stroke: #000000"/>
    <path d="M 411.4125 107.46 
L 421.875 107.46 
L 421.875 148.23 
L 411.4125 148.23 
L 411.4125 107.46 
" clip-path="url(#p9ec3e08ef4)" style="fill: #440154; stroke: #000000"/>
    <path d="M 421.875 107.46 
L 432.3375 107.46 
L 432.3375 148.23 
L 421.875 148.23 
L 421.875 107.46 
" clip-path="url(#p9ec3e08ef4)" style="fill: #440154; stroke: #000000"/>
    <path d="M 432.3375 107.46 
L 442.8 107.46 
L 442.8 148.23 
L 432.3375 148.23 
L 432.3375 107.46 
" clip-path="url(#p9ec3e08ef4)" style="fill: #440154; stroke: #000000"/>
    <path d="M 442.8 107.46 
L 453.2625 107.46 
L 453.2625 148.23 
L 442.8 148.23 
L 442.8 107.46 
" clip-path="url(#p9ec3e08ef4)" style="fill: #fde725; stroke: #000000"/>
    <path d="M 453.2625 107.46 
L 463.725 107.46 
L 463.725 148.23 
L 453.2625 148.23 
L 453.2625 107.46 
" clip-path="url(#p9ec3e08ef4)" style="fill: #440154; stroke: #000000"/>
    <path d="M 463.725 107.46 
L 474.1875 107.46 
L 474.1875 148.23 
L 463.725 148.23 
L 463.725 107.46 
" clip-path="url(#p9ec3e08ef4)" style="fill: #440154; stroke: #000000"/>
    <path d="M 474.1875 107.46 
L 484.65 107.46 
L 484.65 148.23 
L 474.1875 148.23 
L 474.1875 107.46 
" clip-path="url(#p9ec3e08ef4)" style="fill: #440154; stroke: #000000"/>
    <path d="M 484.65 107.46 
L 495.1125 107.46 
L 495.1125 148.23 
L 484.65 148.23 
L 484.65 107.46 
" clip-path="url(#p9ec3e08ef4)" style="fill: #440154; stroke: #000000"/>
    <path d="M 495.1125 107.46 
L 505.575 107.46 
L 505.575 148.23 
L 495.1125 148.23 
L 495.1125 107.46 
" clip-path="url(#p9ec3e08ef4)" style="fill: #440154; stroke: #000000"/>
    <path d="M 505.575 107.46 
L 516.0375 107.46 
L 516.0375 148.23 
L 505.575 148.23 
L 505.575 107.46 
" clip-path="url(#p9ec3e08ef4)" style="fill: #440154; stroke: #000000"/>
    <path d="M 516.0375 107.46 
L 526.5 107.46 
L 526.5 148.23 
L 516.0375 148.23 
L 516.0375 107.46 
" clip-path="url(#p9ec3e08ef4)" style="fill: #440154; stroke: #000000"/>
    <path d="M 526.5 107.46 
L 536.9625 107.46 
L 536.9625 148.23 
L 526.5 148.23 
L 526.5 107.46 
" clip-path="url(#p9ec3e08ef4)" style="fill: #fde725; stroke: #000000"/>
    <path d="M 536.9625 107.46 
L 547.425 107.46 
L 547.425 148.23 
L 536.9625 148.23 
L 536.9625 107.46 
" clip-path="url(#p9ec3e08ef4)" style="fill: #440154; stroke: #000000"/>
    <path d="M 547.425 107.46 
L 557.8875 107.46 
L 557.8875 148.23 
L 547.425 148.23 
L 547.425 107.46 
" clip-path="url(#p9ec3e08ef4)" style="fill: #440154; stroke: #000000"/>
    <path d="M 557.8875 107.46 
L 568.35 107.46 
L 568.35 148.23 
L 557.8875 148.23 
L 557.8875 107.46 
" clip-path="url(#p9ec3e08ef4)" style="fill: #440154; stroke: #000000"/>
    <path d="M 568.35 107.46 
L 578.8125 107.46 
L 578.8125 148.23 
L 568.35 148.23 
L 568.35 107.46 
" clip-path="url(#p9ec3e08ef4)" style="fill: #fde725; stroke: #000000"/>
    <path d="M 578.8125 107.46 
L 589.275 107.46 
L 589.275 148.23 
L 578.8125 148.23 
L 578.8125 107.46 
" clip-path="url(#p9ec3e08ef4)" style="fill: #440154; stroke: #000000"/>
    <path d="M 589.275 107.46 
L 599.7375 107.46 
L 599.7375 148.23 
L 589.275 148.23 
L 589.275 107.46 
" clip-path="url(#p9ec3e08ef4)" style="fill: #440154; stroke: #000000"/>
    <path d="M 599.7375 107.46 
L 610.2 107.46 
L 610.2 148.23 
L 599.7375 148.23 
L 599.7375 107.46 
" clip-path="url(#p9ec3e08ef4)" style="fill: #440154; stroke: #000000"/>
    <path d="M 610.2 107.46 
L 620.6625 107.46 
L 620.6625 148.23 
L 610.2 148.23 
L 610.2 107.46 
" clip-path="url(#p9ec3e08ef4)" style="fill: #fde725; stroke: #000000"/>
    <path d="M 620.6625 107.46 
L 631.125 107.46 
L 631.125 148.23 
L 620.6625 148.23 
L 620.6625 107.46 
" clip-path="url(#p9ec3e08ef4)" style="fill: #440154; stroke: #000000"/>
    <path d="M 631.125 107.46 
L 641.5875 107.46 
L 641.5875 148.23 
L 631.125 148.23 
L 631.125 107.46 
" clip-path="url(#p9ec3e08ef4)" style="fill: #440154; stroke: #000000"/>
    <path d="M 641.5875 107.46 
L 652.05 107.46 
L 652.05 148.23 
L 641.5875 148.23 
L 641.5875 107.46 
" clip-path="url(#p9ec3e08ef4)" style="fill: #440154; stroke: #000000"/>
    <path d="M 652.05 107.46 
L 662.5125 107.46 
L 662.5125 148.23 
L 652.05 148.23 
L 652.05 107.46 
" clip-path="url(#p9ec3e08ef4)" style="fill: #fde725; stroke: #000000"/>
    <path d="M 662.5125 107.46 
L 672.975 107.46 
L 672.975 148.23 
L 662.5125 148.23 
L 662.5125 107.46 
" clip-path="url(#p9ec3e08ef4)" style="fill: #440154; stroke: #000000"/>
    <path d="M 672.975 107.46 
L 683.4375 107.46 
L 683.4375 148.23 
L 672.975 148.23 
L 672.975 107.46 
" clip-path="url(#p9ec3e08ef4)" style="fill: #440154; stroke: #000000"/>
    <path d="M 683.4375 107.46 
L 693.9 107.46 
L 693.9 148.23 
L 683.4375 148.23 
L 683.4375 107.46 
" clip-path="url(#p9ec3e08ef4)" style="fill: #440154; stroke: #000000"/>
    <path d="M 693.9 107.46 
L 704.3625 107.46 
L 704.3625 148.23 
L 693.9 148.23 
L 693.9 107.46 
" clip-path="url(#p9ec3e08ef4)" style="fill: #fde725; stroke: #000000"/>
    <path d="M 704.3625 107.46 
L 714.825 107.46 
L 714.825 148.23 
L 704.3625 148.23 
L 704.3625 107.46 
" clip-path="url(#p9ec3e08ef4)" style="fill: #440154; stroke: #000000"/>
    <path d="M 714.825 107.46 
L 725.2875 107.46 
L 725.2875 148.23 
L 714.825 148.23 
L 714.825 107.46 
" clip-path="url(#p9ec3e08ef4)" style="fill: #440154; stroke: #000000"/>
    <path d="M 725.2875 107.46 
L 735.75 107.46 
L 735.75 148.23 
L 725.2875 148.23 
L 725.2875 107.46 
" clip-path="url(#p9ec3e08ef4)" style="fill: #440154; stroke: #000000"/>
    <path d="M 735.75 107.46 
L 746.2125 107.46 
L 746.2125 148.23 
L 735.75 148.23 
L 735.75 107.46 
" clip-path="url(#p9ec3e08ef4)" style="fill: #440154; stroke: #000000"/>
    <path d="M 746.2125 107.46 
L 756.675 107.46 
L 756.675 148.23 
L 746.2125 148.23 
L 746.2125 107.46 
" clip-path="url(#p9ec3e08ef4)" style="fill: #440154; stroke: #000000"/>
    <path d="M 756.675 107.46 
L 767.1375 107.46 
L 767.1375 148.23 
L 756.675 148.23 
L 756.675 107.46 
" clip-path="url(#p9ec3e08ef4)" style="fill: #440154; stroke: #000000"/>
    <path d="M 767.1375 107.46 
L 777.6 107.46 
L 777.6 148.23 
L 767.1375 148.23 
L 767.1375 107.46 
" clip-path="url(#p9ec3e08ef4)" style="fill: #440154; stroke: #000000"/>
    <path d="M 108 148.23 
L 118.4625 148.23 
L 118.4625 189 
L 108 189 
L 108 148.23 
" clip-path="url(#p9ec3e08ef4)" style="fill: #fde725; stroke: #000000"/>
    <path d="M 118.4625 148.23 
L 128.925 148.23 
L 128.925 189 
L 118.4625 189 
L 118.4625 148.23 
" clip-path="url(#p9ec3e08ef4)" style="fill: #440154; stroke: #000000"/>
    <path d="M 128.925 148.23 
L 139.3875 148.23 
L 139.3875 189 
L 128.925 189 
L 128.925 148.23 
" clip-path="url(#p9ec3e08ef4)" style="fill: #440154; stroke: #000000"/>
    <path d="M 139.3875 148.23 
L 149.85 148.23 
L 149.85 189 
L 139.3875 189 
L 139.3875 148.23 
" clip-path="url(#p9ec3e08ef4)" style="fill: #440154; stroke: #000000"/>
    <path d="M 149.85 148.23 
L 160.3125 148.23 
L 160.3125 189 
L 149.85 189 
L 149.85 148.23 
" clip-path="url(#p9ec3e08ef4)" style="fill: #fde725; stroke: #000000"/>
    <path d="M 160.3125 148.23 
L 170.775 148.23 
L 170.775 189 
L 160.3125 189 
L 160.3125 148.23 
" clip-path="url(#p9ec3e08ef4)" style="fill: #440154; stroke: #000000"/>
    <path d="M 170.775 148.23 
L 181.2375 148.23 
L 181.2375 189 
L 170.775 189 
L 170.775 148.23 
" clip-path="url(#p9ec3e08ef4)" style="fill: #440154; stroke: #000000"/>
    <path d="M 181.2375 148.23 
L 191.7 148.23 
L 191.7 189 
L 181.2375 189 
L 181.2375 148.23 
" clip-path="url(#p9ec3e08ef4)" style="fill: #440154; stroke: #000000"/>
    <path d="M 191.7 148.23 
L 202.1625 148.23 
L 202.1625 189 
L 191.7 189 
L 191.7 148.23 
" clip-path="url(#p9ec3e08ef4)" style="fill: #440154; stroke: #000000"/>
    <path d="M 202.1625 148.23 
L 212.625 148.23 
L 212.625 189 
L 202.1625 189 
L 202.1625 148.23 
" clip-path="url(#p9ec3e08ef4)" style="fill: #440154; stroke: #000000"/>
    <path d="M 212.625 148.23 
L 223.0875 148.23 
L 223.0875 189 
L 212.625 189 
L 212.625 148.23 
" clip-path="url(#p9ec3e08ef4)" style="fill: #440154; stroke: #000000"/>
    <path d="M 223.0875 148.23 
L 233.55 148.23 
L 233.55 189 
L 223.0875 189 
L 223.0875 148.23 
" clip-path="url(#p9ec3e08ef4)" style="fill: #440154; stroke: #000000"/>
    <path d="M 233.55 148.23 
L 244.0125 148.23 
L 244.0125 189 
L 233.55 189 
L 233.55 148.23 
" clip-path="url(#p9ec3e08ef4)" style="fill: #fde725; stroke: #000000"/>
    <path d="M 244.0125 148.23 
L 254.475 148.23 
L 254.475 189 
L 244.0125 189 
L 244.0125 148.23 
" clip-path="url(#p9ec3e08ef4)" style="fill: #440154; stroke: #000000"/>
    <path d="M 254.475 148.23 
L 264.9375 148.23 
L 264.9375 189 
L 254.475 189 
L 254.475 148.23 
" clip-path="url(#p9ec3e08ef4)" style="fill: #fde725; stroke: #000000"/>
    <path d="M 264.9375 148.23 
L 275.4 148.23 
L 275.4 189 
L 264.9375 189 
L 264.9375 148.23 
" clip-path="url(#p9ec3e08ef4)" style="fill: #440154; stroke: #000000"/>
    <path d="M 275.4 148.23 
L 285.8625 148.23 
L 285.8625 189 
L 275.4 189 
L 275.4 148.23 
" clip-path="url(#p9ec3e08ef4)" style="fill: #440154; stroke: #000000"/>
    <path d="M 285.8625 148.23 
L 296.325 148.23 
L 296.325 189 
L 285.8625 189 
L 285.8625 148.23 
" clip-path="url(#p9ec3e08ef4)" style="fill: #440154; stroke: #000000"/>
    <path d="M 296.325 148.23 
L 306.7875 148.23 
L 306.7875 189 
L 296.325 189 
L 296.325 148.23 
" clip-path="url(#p9ec3e08ef4)" style="fill: #440154; stroke: #000000"/>
    <path d="M 306.7875 148.23 
L 317.25 148.23 
L 317.25 189 
L 306.7875 189 
L 306.7875 148.23 
" clip-path="url(#p9ec3e08ef4)" style="fill: #440154; stroke: #000000"/>
    <path d="M 317.25 148.23 
L 327.7125 148.23 
L 327.7125 189 
L 317.25 189 
L 317.25 148.23 
" clip-path="url(#p9ec3e08ef4)" style="fill: #fde725; stroke: #000000"/>
    <path d="M 327.7125 148.23 
L 338.175 148.23 
L 338.175 189 
L 327.7125 189 
L 327.7125 148.23 
" clip-path="url(#p9ec3e08ef4)" style="fill: #440154; stroke: #000000"/>
    <path d="M 338.175 148.23 
L 348.6375 148.23 
L 348.6375 189 
L 338.175 189 
L 338.175 148.23 
" clip-path="url(#p9ec3e08ef4)" style="fill: #440154; stroke: #000000"/>
    <path d="M 348.6375 148.23 
L 359.1 148.23 
L 359.1 189 
L 348.6375 189 
L 348.6375 148.23 
" clip-path="url(#p9ec3e08ef4)" style="fill: #440154; stroke: #000000"/>
    <path d="M 359.1 148.23 
L 369.5625 148.23 
L 369.5625 189 
L 359.1 189 
L 359.1 148.23 
" clip-path="url(#p9ec3e08ef4)" style="fill: #440154; stroke: #000000"/>
    <path d="M 369.5625 148.23 
L 380.025 148.23 
L 380.025 189 
L 369.5625 189 
L 369.5625 148.23 
" clip-path="url(#p9ec3e08ef4)" style="fill: #440154; stroke: #000000"/>
    <path d="M 380.025 148.23 
L 390.4875 148.23 
L 390.4875 189 
L 380.025 189 
L 380.025 148.23 
" clip-path="url(#p9ec3e08ef4)" style="fill: #440154; stroke: #000000"/>
    <path d="M 390.4875 148.23 
L 400.95 148.23 
L 400.95 189 
L 390.4875 189 
L 390.4875 148.23 
" clip-path="url(#p9ec3e08ef4)" style="fill: #440154; stroke: #000000"/>
    <path d="M 400.95 148.23 
L 411.4125 148.23 
L 411.4125 189 
L 400.95 189 
L 400.95 148.23 
" clip-path="url(#p9ec3e08ef4)" style="fill: #fde725; stroke: #000000"/>
    <path d="M 411.4125 148.23 
L 421.875 148.23 
L 421.875 189 
L 411.4125 189 
L 411.4125 148.23 
" clip-path="url(#p9ec3e08ef4)" style="fill: #440154; stroke: #000000"/>
    <path d="M 421.875 148.23 
L 432.3375 148.23 
L 432.3375 189 
L 421.875 189 
L 421.875 148.23 
" clip-path="url(#p9ec3e08ef4)" style="fill: #440154; stroke: #000000"/>
    <path d="M 432.3375 148.23 
L 442.8 148.23 
L 442.8 189 
L 432.3375 189 
L 432.3375 148.23 
" clip-path="url(#p9ec3e08ef4)" style="fill: #440154; stroke: #000000"/>
    <path d="M 442.8 148.23 
L 453.2625 148.23 
L 453.2625 189 
L 442.8 189 
L 442.8 148.23 
" clip-path="url(#p9ec3e08ef4)" style="fill: #fde725; stroke: #000000"/>
    <path d="M 453.2625 148.23 
L 463.725 148.23 
L 463.725 189 
L 453.2625 189 
L 453.2625 148.23 
" clip-path="url(#p9ec3e08ef4)" style="fill: #440154; stroke: #000000"/>
    <path d="M 463.725 148.23 
L 474.1875 148.23 
L 474.1875 189 
L 463.725 189 
L 463.725 148.23 
" clip-path="url(#p9ec3e08ef4)" style="fill: #440154; stroke: #000000"/>
    <path d="M 474.1875 148.23 
L 484.65 148.23 
L 484.65 189 
L 474.1875 189 
L 474.1875 148.23 
" clip-path="url(#p9ec3e08ef4)" style="fill: #440154; stroke: #000000"/>
    <path d="M 484.65 148.23 
L 495.1125 148.23 
L 495.1125 189 
L 484.65 189 
L 484.65 148.23 
" clip-path="url(#p9ec3e08ef4)" style="fill: #fde725; stroke: #000000"/>
    <path d="M 495.1125 148.23 
L 505.575 148.23 
L 505.575 189 
L 495.1125 189 
L 495.1125 148.23 
" clip-path="url(#p9ec3e08ef4)" style="fill: #440154; stroke: #000000"/>
    <path d="M 505.575 148.23 
L 516.0375 148.23 
L 516.0375 189 
L 505.575 189 
L 505.575 148.23 
" clip-path="url(#p9ec3e08ef4)" style="fill: #440154; stroke: #000000"/>
    <path d="M 516.0375 148.23 
L 526.5 148.23 
L 526.5 189 
L 516.0375 189 
L 516.0375 148.23 
" clip-path="url(#p9ec3e08ef4)" style="fill: #440154; stroke: #000000"/>
    <path d="M 526.5 148.23 
L 536.9625 148.23 
L 536.9625 189 
L 526.5 189 
L 526.5 148.23 
" clip-path="url(#p9ec3e08ef4)" style="fill: #fde725; stroke: #000000"/>
    <path d="M 536.9625 148.23 
L 547.425 148.23 
L 547.425 189 
L 536.9625 189 
L 536.9625 148.23 
" clip-path="url(#p9ec3e08ef4)" style="fill: #440154; stroke: #000000"/>
    <path d="M 547.425 148.23 
L 557.8875 148.23 
L 557.8875 189 
L 547.425 189 
L 547.425 148.23 
" clip-path="url(#p9ec3e08ef4)" style="fill: #440154; stroke: #000000"/>
    <path d="M 557.8875 148.23 
L 568.35 148.23 
L 568.35 189 
L 557.8875 189 
L 557.8875 148.23 
" clip-path="url(#p9ec3e08ef4)" style="fill: #440154; stroke: #000000"/>
    <path d="M 568.35 148.23 
L 578.8125 148.23 
L 578.8125 189 
L 568.35 189 
L 568.35 148.23 
" clip-path="url(#p9ec3e08ef4)" style="fill: #fde725; stroke: #000000"/>
    <path d="M 578.8125 148.23 
L 589.275 148.23 
L 589.275 189 
L 578.8125 189 
L 578.8125 148.23 
" clip-path="url(#p9ec3e08ef4)" style="fill: #440154; stroke: #000000"/>
    <path d="M 589.275 148.23 
L 599.7375 148.23 
L 599.7375 189 
L 589.275 189 
L 589.275 148.23 
" clip-path="url(#p9ec3e08ef4)" style="fill: #440154; stroke: #000000"/>
    <path d="M 599.7375 148.23 
L 610.2 148.23 
L 610.2 189 
L 599.7375 189 
L 599.7375 148.23 
" clip-path="url(#p9ec3e08ef4)" style="fill: #440154; stroke: #000000"/>
    <path d="M 610.2 148.23 
L 620.6625 148.23 
L 620.6625 189 
L 610.2 189 
L 610.2 148.23 
" clip-path="url(#p9ec3e08ef4)" style="fill: #fde725; stroke: #000000"/>
    <path d="M 620.6625 148.23 
L 631.125 148.23 
L 631.125 189 
L 620.6625 189 
L 620.6625 148.23 
" clip-path="url(#p9ec3e08ef4)" style="fill: #440154; stroke: #000000"/>
    <path d="M 631.125 148.23 
L 641.5875 148.23 
L 641.5875 189 
L 631.125 189 
L 631.125 148.23 
" clip-path="url(#p9ec3e08ef4)" style="fill: #440154; stroke: #000000"/>
    <path d="M 641.5875 148.23 
L 652.05 148.23 
L 652.05 189 
L 641.5875 189 
L 641.5875 148.23 
" clip-path="url(#p9ec3e08ef4)" style="fill: #440154; stroke: #000000"/>
    <path d="M 652.05 148.23 
L 662.5125 148.23 
L 662.5125 189 
L 652.05 189 
L 652.05 148.23 
" clip-path="url(#p9ec3e08ef4)" style="fill: #fde725; stroke: #000000"/>
    <path d="M 662.5125 148.23 
L 672.975 148.23 
L 672.975 189 
L 662.5125 189 
L 662.5125 148.23 
" clip-path="url(#p9ec3e08ef4)" style="fill: #440154; stroke: #000000"/>
    <path d="M 672.975 148.23 
L 683.4375 148.23 
L 683.4375 189 
L 672.975 189 
L 672.975 148.23 
" clip-path="url(#p9ec3e08ef4)" style="fill: #fde725; stroke: #000000"/>
    <path d="M 683.4375 148.23 
L 693.9 148.23 
L 693.9 189 
L 683.4375 189 
L 683.4375 148.23 
" clip-path="url(#p9ec3e08ef4)" style="fill: #440154; stroke: #000000"/>
    <path d="M 693.9 148.23 
L 704.3625 148.23 
L 704.3625 189 
L 693.9 189 
L 693.9 148.23 
" clip-path="url(#p9ec3e08ef4)" style="fill: #fde725; stroke: #000000"/>
    <path d="M 704.3625 148.23 
L 714.825 148.23 
L 714.825 189 
L 704.3625 189 
L 704.3625 148.23 
" clip-path="url(#p9ec3e08ef4)" style="fill: #440154; stroke: #000000"/>
    <path d="M 714.825 148.23 
L 725.2875 148.23 
L 725.2875 189 
L 714.825 189 
L 714.825 148.23 
" clip-path="url(#p9ec3e08ef4)" style="fill: #440154; stroke: #000000"/>
    <path d="M 725.2875 148.23 
L 735.75 148.23 
L 735.75 189 
L 725.2875 189 
L 725.2875 148.23 
" clip-path="url(#p9ec3e08ef4)" style="fill: #440154; stroke: #000000"/>
    <path d="M 735.75 148.23 
L 746.2125 148.23 
L 746.2125 189 
L 735.75 189 
L 735.75 148.23 
" clip-path="url(#p9ec3e08ef4)" style="fill: #fde725; stroke: #000000"/>
    <path d="M 746.2125 148.23 
L 756.675 148.23 
L 756.675 189 
L 746.2125 189 
L 746.2125 148.23 
" clip-path="url(#p9ec3e08ef4)" style="fill: #440154; stroke: #000000"/>
    <path d="M 756.675 148.23 
L 767.1375 148.23 
L 767.1375 189 
L 756.675 189 
L 756.675 148.23 
" clip-path="url(#p9ec3e08ef4)" style="fill: #440154; stroke: #000000"/>
    <path d="M 767.1375 148.23 
L 777.6 148.23 
L 777.6 189 
L 767.1375 189 
L 767.1375 148.23 
" clip-path="url(#p9ec3e08ef4)" style="fill: #440154; stroke: #000000"/>
   </g>
   <g id="matplotlib.axis_1">
    <g id="xtick_1">
     <g id="line2d_1">
      <defs>
       <path id="md14cebda5d" d="M 0 0 
L 0 3.5 
" style="stroke: #000000; stroke-width: 0.8"/>
      </defs>
      <g>
       <use xlink:href="#md14cebda5d" x="108" y="189" style="stroke: #000000; stroke-width: 0.8"/>
      </g>
     </g>
     <g id="text_1">
      <!-- 1 -->
      <g transform="translate(103.54625 206.637812)scale(0.14 -0.14)">
       <defs>
        <path id="DejaVuSans-31" d="M 794 531 
L 1825 531 
L 1825 4091 
L 703 3866 
L 703 4441 
L 1819 4666 
L 2450 4666 
L 2450 531 
L 3481 531 
L 3481 0 
L 794 0 
L 794 531 
z
" transform="scale(0.015625)"/>
       </defs>
       <use xlink:href="#DejaVuSans-31"/>
      </g>
     </g>
    </g>
    <g id="xtick_2">
     <g id="line2d_2">
      <g>
       <use xlink:href="#md14cebda5d" x="191.7" y="189" style="stroke: #000000; stroke-width: 0.8"/>
      </g>
     </g>
     <g id="text_2">
      <!-- 2 -->
      <g transform="translate(187.24625 206.637812)scale(0.14 -0.14)">
       <defs>
        <path id="DejaVuSans-32" d="M 1228 531 
L 3431 531 
L 3431 0 
L 469 0 
L 469 531 
Q 828 903 1448 1529 
Q 2069 2156 2228 2338 
Q 2531 2678 2651 2914 
Q 2772 3150 2772 3378 
Q 2772 3750 2511 3984 
Q 2250 4219 1831 4219 
Q 1534 4219 1204 4116 
Q 875 4013 500 3803 
L 500 4441 
Q 881 4594 1212 4672 
Q 1544 4750 1819 4750 
Q 2544 4750 2975 4387 
Q 3406 4025 3406 3419 
Q 3406 3131 3298 2873 
Q 3191 2616 2906 2266 
Q 2828 2175 2409 1742 
Q 1991 1309 1228 531 
z
" transform="scale(0.015625)"/>
       </defs>
       <use xlink:href="#DejaVuSans-32"/>
      </g>
     </g>
    </g>
    <g id="xtick_3">
     <g id="line2d_3">
      <g>
       <use xlink:href="#md14cebda5d" x="275.4" y="189" style="stroke: #000000; stroke-width: 0.8"/>
      </g>
     </g>
     <g id="text_3">
      <!-- 3 -->
      <g transform="translate(270.94625 206.637812)scale(0.14 -0.14)">
       <defs>
        <path id="DejaVuSans-33" d="M 2597 2516 
Q 3050 2419 3304 2112 
Q 3559 1806 3559 1356 
Q 3559 666 3084 287 
Q 2609 -91 1734 -91 
Q 1441 -91 1130 -33 
Q 819 25 488 141 
L 488 750 
Q 750 597 1062 519 
Q 1375 441 1716 441 
Q 2309 441 2620 675 
Q 2931 909 2931 1356 
Q 2931 1769 2642 2001 
Q 2353 2234 1838 2234 
L 1294 2234 
L 1294 2753 
L 1863 2753 
Q 2328 2753 2575 2939 
Q 2822 3125 2822 3475 
Q 2822 3834 2567 4026 
Q 2313 4219 1838 4219 
Q 1578 4219 1281 4162 
Q 984 4106 628 3988 
L 628 4550 
Q 988 4650 1302 4700 
Q 1616 4750 1894 4750 
Q 2613 4750 3031 4423 
Q 3450 4097 3450 3541 
Q 3450 3153 3228 2886 
Q 3006 2619 2597 2516 
z
" transform="scale(0.015625)"/>
       </defs>
       <use xlink:href="#DejaVuSans-33"/>
      </g>
     </g>
    </g>
    <g id="xtick_4">
     <g id="line2d_4">
      <g>
       <use xlink:href="#md14cebda5d" x="359.1" y="189" style="stroke: #000000; stroke-width: 0.8"/>
      </g>
     </g>
     <g id="text_4">
      <!-- 4 -->
      <g transform="translate(354.64625 206.637812)scale(0.14 -0.14)">
       <defs>
        <path id="DejaVuSans-34" d="M 2419 4116 
L 825 1625 
L 2419 1625 
L 2419 4116 
z
M 2253 4666 
L 3047 4666 
L 3047 1625 
L 3713 1625 
L 3713 1100 
L 3047 1100 
L 3047 0 
L 2419 0 
L 2419 1100 
L 313 1100 
L 313 1709 
L 2253 4666 
z
" transform="scale(0.015625)"/>
       </defs>
       <use xlink:href="#DejaVuSans-34"/>
      </g>
     </g>
    </g>
    <g id="xtick_5">
     <g id="line2d_5">
      <g>
       <use xlink:href="#md14cebda5d" x="442.8" y="189" style="stroke: #000000; stroke-width: 0.8"/>
      </g>
     </g>
     <g id="text_5">
      <!-- 5 -->
      <g transform="translate(438.34625 206.637812)scale(0.14 -0.14)">
       <defs>
        <path id="DejaVuSans-35" d="M 691 4666 
L 3169 4666 
L 3169 4134 
L 1269 4134 
L 1269 2991 
Q 1406 3038 1543 3061 
Q 1681 3084 1819 3084 
Q 2600 3084 3056 2656 
Q 3513 2228 3513 1497 
Q 3513 744 3044 326 
Q 2575 -91 1722 -91 
Q 1428 -91 1123 -41 
Q 819 9 494 109 
L 494 744 
Q 775 591 1075 516 
Q 1375 441 1709 441 
Q 2250 441 2565 725 
Q 2881 1009 2881 1497 
Q 2881 1984 2565 2268 
Q 2250 2553 1709 2553 
Q 1456 2553 1204 2497 
Q 953 2441 691 2322 
L 691 4666 
z
" transform="scale(0.015625)"/>
       </defs>
       <use xlink:href="#DejaVuSans-35"/>
      </g>
     </g>
    </g>
    <g id="xtick_6">
     <g id="line2d_6">
      <g>
       <use xlink:href="#md14cebda5d" x="526.5" y="189" style="stroke: #000000; stroke-width: 0.8"/>
      </g>
     </g>
     <g id="text_6">
      <!-- 6 -->
      <g transform="translate(522.04625 206.637812)scale(0.14 -0.14)">
       <defs>
        <path id="DejaVuSans-36" d="M 2113 2584 
Q 1688 2584 1439 2293 
Q 1191 2003 1191 1497 
Q 1191 994 1439 701 
Q 1688 409 2113 409 
Q 2538 409 2786 701 
Q 3034 994 3034 1497 
Q 3034 2003 2786 2293 
Q 2538 2584 2113 2584 
z
M 3366 4563 
L 3366 3988 
Q 3128 4100 2886 4159 
Q 2644 4219 2406 4219 
Q 1781 4219 1451 3797 
Q 1122 3375 1075 2522 
Q 1259 2794 1537 2939 
Q 1816 3084 2150 3084 
Q 2853 3084 3261 2657 
Q 3669 2231 3669 1497 
Q 3669 778 3244 343 
Q 2819 -91 2113 -91 
Q 1303 -91 875 529 
Q 447 1150 447 2328 
Q 447 3434 972 4092 
Q 1497 4750 2381 4750 
Q 2619 4750 2861 4703 
Q 3103 4656 3366 4563 
z
" transform="scale(0.015625)"/>
       </defs>
       <use xlink:href="#DejaVuSans-36"/>
      </g>
     </g>
    </g>
    <g id="xtick_7">
     <g id="line2d_7">
      <g>
       <use xlink:href="#md14cebda5d" x="610.2" y="189" style="stroke: #000000; stroke-width: 0.8"/>
      </g>
     </g>
     <g id="text_7">
      <!-- 7 -->
      <g transform="translate(605.74625 206.637812)scale(0.14 -0.14)">
       <defs>
        <path id="DejaVuSans-37" d="M 525 4666 
L 3525 4666 
L 3525 4397 
L 1831 0 
L 1172 0 
L 2766 4134 
L 525 4134 
L 525 4666 
z
" transform="scale(0.015625)"/>
       </defs>
       <use xlink:href="#DejaVuSans-37"/>
      </g>
     </g>
    </g>
    <g id="xtick_8">
     <g id="line2d_8">
      <g>
       <use xlink:href="#md14cebda5d" x="693.9" y="189" style="stroke: #000000; stroke-width: 0.8"/>
      </g>
     </g>
     <g id="text_8">
      <!-- 8 -->
      <g transform="translate(689.44625 206.637812)scale(0.14 -0.14)">
       <defs>
        <path id="DejaVuSans-38" d="M 2034 2216 
Q 1584 2216 1326 1975 
Q 1069 1734 1069 1313 
Q 1069 891 1326 650 
Q 1584 409 2034 409 
Q 2484 409 2743 651 
Q 3003 894 3003 1313 
Q 3003 1734 2745 1975 
Q 2488 2216 2034 2216 
z
M 1403 2484 
Q 997 2584 770 2862 
Q 544 3141 544 3541 
Q 544 4100 942 4425 
Q 1341 4750 2034 4750 
Q 2731 4750 3128 4425 
Q 3525 4100 3525 3541 
Q 3525 3141 3298 2862 
Q 3072 2584 2669 2484 
Q 3125 2378 3379 2068 
Q 3634 1759 3634 1313 
Q 3634 634 3220 271 
Q 2806 -91 2034 -91 
Q 1263 -91 848 271 
Q 434 634 434 1313 
Q 434 1759 690 2068 
Q 947 2378 1403 2484 
z
M 1172 3481 
Q 1172 3119 1398 2916 
Q 1625 2713 2034 2713 
Q 2441 2713 2670 2916 
Q 2900 3119 2900 3481 
Q 2900 3844 2670 4047 
Q 2441 4250 2034 4250 
Q 1625 4250 1398 4047 
Q 1172 3844 1172 3481 
z
" transform="scale(0.015625)"/>
       </defs>
       <use xlink:href="#DejaVuSans-38"/>
      </g>
     </g>
    </g>
   </g>
   <g id="matplotlib.axis_2">
    <g id="ytick_1">
     <g id="line2d_9">
      <defs>
       <path id="m1270b2262f" d="M 0 0 
L -3.5 0 
" style="stroke: #000000; stroke-width: 0.8"/>
      </defs>
      <g>
       <use xlink:href="#m1270b2262f" x="108" y="25.92" style="stroke: #000000; stroke-width: 0.8"/>
      </g>
     </g>
     <g id="text_9">
      <!-- Drums -->
      <g transform="translate(54.662187 31.238906)scale(0.14 -0.14)">
       <defs>
        <path id="DejaVuSans-44" d="M 1259 4147 
L 1259 519 
L 2022 519 
Q 2988 519 3436 956 
Q 3884 1394 3884 2338 
Q 3884 3275 3436 3711 
Q 2988 4147 2022 4147 
L 1259 4147 
z
M 628 4666 
L 1925 4666 
Q 3281 4666 3915 4102 
Q 4550 3538 4550 2338 
Q 4550 1131 3912 565 
Q 3275 0 1925 0 
L 628 0 
L 628 4666 
z
" transform="scale(0.015625)"/>
        <path id="DejaVuSans-72" d="M 2631 2963 
Q 2534 3019 2420 3045 
Q 2306 3072 2169 3072 
Q 1681 3072 1420 2755 
Q 1159 2438 1159 1844 
L 1159 0 
L 581 0 
L 581 3500 
L 1159 3500 
L 1159 2956 
Q 1341 3275 1631 3429 
Q 1922 3584 2338 3584 
Q 2397 3584 2469 3576 
Q 2541 3569 2628 3553 
L 2631 2963 
z
" transform="scale(0.015625)"/>
        <path id="DejaVuSans-75" d="M 544 1381 
L 544 3500 
L 1119 3500 
L 1119 1403 
Q 1119 906 1312 657 
Q 1506 409 1894 409 
Q 2359 409 2629 706 
Q 2900 1003 2900 1516 
L 2900 3500 
L 3475 3500 
L 3475 0 
L 2900 0 
L 2900 538 
Q 2691 219 2414 64 
Q 2138 -91 1772 -91 
Q 1169 -91 856 284 
Q 544 659 544 1381 
z
M 1991 3584 
L 1991 3584 
z
" transform="scale(0.015625)"/>
        <path id="DejaVuSans-6d" d="M 3328 2828 
Q 3544 3216 3844 3400 
Q 4144 3584 4550 3584 
Q 5097 3584 5394 3201 
Q 5691 2819 5691 2113 
L 5691 0 
L 5113 0 
L 5113 2094 
Q 5113 2597 4934 2840 
Q 4756 3084 4391 3084 
Q 3944 3084 3684 2787 
Q 3425 2491 3425 1978 
L 3425 0 
L 2847 0 
L 2847 2094 
Q 2847 2600 2669 2842 
Q 2491 3084 2119 3084 
Q 1678 3084 1418 2786 
Q 1159 2488 1159 1978 
L 1159 0 
L 581 0 
L 581 3500 
L 1159 3500 
L 1159 2956 
Q 1356 3278 1631 3431 
Q 1906 3584 2284 3584 
Q 2666 3584 2933 3390 
Q 3200 3197 3328 2828 
z
" transform="scale(0.015625)"/>
        <path id="DejaVuSans-73" d="M 2834 3397 
L 2834 2853 
Q 2591 2978 2328 3040 
Q 2066 3103 1784 3103 
Q 1356 3103 1142 2972 
Q 928 2841 928 2578 
Q 928 2378 1081 2264 
Q 1234 2150 1697 2047 
L 1894 2003 
Q 2506 1872 2764 1633 
Q 3022 1394 3022 966 
Q 3022 478 2636 193 
Q 2250 -91 1575 -91 
Q 1294 -91 989 -36 
Q 684 19 347 128 
L 347 722 
Q 666 556 975 473 
Q 1284 391 1588 391 
Q 1994 391 2212 530 
Q 2431 669 2431 922 
Q 2431 1156 2273 1281 
Q 2116 1406 1581 1522 
L 1381 1569 
Q 847 1681 609 1914 
Q 372 2147 372 2553 
Q 372 3047 722 3315 
Q 1072 3584 1716 3584 
Q 2034 3584 2315 3537 
Q 2597 3491 2834 3397 
z
" transform="scale(0.015625)"/>
       </defs>
       <use xlink:href="#DejaVuSans-44"/>
       <use xlink:href="#DejaVuSans-72" x="77.001953"/>
       <use xlink:href="#DejaVuSans-75" x="118.115234"/>
       <use xlink:href="#DejaVuSans-6d" x="181.494141"/>
       <use xlink:href="#DejaVuSans-73" x="278.90625"/>
      </g>
     </g>
    </g>
    <g id="ytick_2">
     <g id="line2d_10">
      <g>
       <use xlink:href="#m1270b2262f" x="108" y="66.69" style="stroke: #000000; stroke-width: 0.8"/>
      </g>
     </g>
     <g id="text_10">
      <!-- Bass -->
      <g transform="translate(68.229062 72.008906)scale(0.14 -0.14)">
       <defs>
        <path id="DejaVuSans-42" d="M 1259 2228 
L 1259 519 
L 2272 519 
Q 2781 519 3026 730 
Q 3272 941 3272 1375 
Q 3272 1813 3026 2020 
Q 2781 2228 2272 2228 
L 1259 2228 
z
M 1259 4147 
L 1259 2741 
L 2194 2741 
Q 2656 2741 2882 2914 
Q 3109 3088 3109 3444 
Q 3109 3797 2882 3972 
Q 2656 4147 2194 4147 
L 1259 4147 
z
M 628 4666 
L 2241 4666 
Q 2963 4666 3353 4366 
Q 3744 4066 3744 3513 
Q 3744 3084 3544 2831 
Q 3344 2578 2956 2516 
Q 3422 2416 3680 2098 
Q 3938 1781 3938 1306 
Q 3938 681 3513 340 
Q 3088 0 2303 0 
L 628 0 
L 628 4666 
z
" transform="scale(0.015625)"/>
        <path id="DejaVuSans-61" d="M 2194 1759 
Q 1497 1759 1228 1600 
Q 959 1441 959 1056 
Q 959 750 1161 570 
Q 1363 391 1709 391 
Q 2188 391 2477 730 
Q 2766 1069 2766 1631 
L 2766 1759 
L 2194 1759 
z
M 3341 1997 
L 3341 0 
L 2766 0 
L 2766 531 
Q 2569 213 2275 61 
Q 1981 -91 1556 -91 
Q 1019 -91 701 211 
Q 384 513 384 1019 
Q 384 1609 779 1909 
Q 1175 2209 1959 2209 
L 2766 2209 
L 2766 2266 
Q 2766 2663 2505 2880 
Q 2244 3097 1772 3097 
Q 1472 3097 1187 3025 
Q 903 2953 641 2809 
L 641 3341 
Q 956 3463 1253 3523 
Q 1550 3584 1831 3584 
Q 2591 3584 2966 3190 
Q 3341 2797 3341 1997 
z
" transform="scale(0.015625)"/>
       </defs>
       <use xlink:href="#DejaVuSans-42"/>
       <use xlink:href="#DejaVuSans-61" x="68.603516"/>
       <use xlink:href="#DejaVuSans-73" x="129.882812"/>
       <use xlink:href="#DejaVuSans-73" x="181.982422"/>
      </g>
     </g>
    </g>
    <g id="ytick_3">
     <g id="line2d_11">
      <g>
       <use xlink:href="#m1270b2262f" x="108" y="107.46" style="stroke: #000000; stroke-width: 0.8"/>
      </g>
     </g>
     <g id="text_11">
      <!-- Guitar -->
      <g transform="translate(57.567187 112.778906)scale(0.14 -0.14)">
       <defs>
        <path id="DejaVuSans-47" d="M 3809 666 
L 3809 1919 
L 2778 1919 
L 2778 2438 
L 4434 2438 
L 4434 434 
Q 4069 175 3628 42 
Q 3188 -91 2688 -91 
Q 1594 -91 976 548 
Q 359 1188 359 2328 
Q 359 3472 976 4111 
Q 1594 4750 2688 4750 
Q 3144 4750 3555 4637 
Q 3966 4525 4313 4306 
L 4313 3634 
Q 3963 3931 3569 4081 
Q 3175 4231 2741 4231 
Q 1884 4231 1454 3753 
Q 1025 3275 1025 2328 
Q 1025 1384 1454 906 
Q 1884 428 2741 428 
Q 3075 428 3337 486 
Q 3600 544 3809 666 
z
" transform="scale(0.015625)"/>
        <path id="DejaVuSans-69" d="M 603 3500 
L 1178 3500 
L 1178 0 
L 603 0 
L 603 3500 
z
M 603 4863 
L 1178 4863 
L 1178 4134 
L 603 4134 
L 603 4863 
z
" transform="scale(0.015625)"/>
        <path id="DejaVuSans-74" d="M 1172 4494 
L 1172 3500 
L 2356 3500 
L 2356 3053 
L 1172 3053 
L 1172 1153 
Q 1172 725 1289 603 
Q 1406 481 1766 481 
L 2356 481 
L 2356 0 
L 1766 0 
Q 1100 0 847 248 
Q 594 497 594 1153 
L 594 3053 
L 172 3053 
L 172 3500 
L 594 3500 
L 594 4494 
L 1172 4494 
z
" transform="scale(0.015625)"/>
       </defs>
       <use xlink:href="#DejaVuSans-47"/>
       <use xlink:href="#DejaVuSans-75" x="77.490234"/>
       <use xlink:href="#DejaVuSans-69" x="140.869141"/>
       <use xlink:href="#DejaVuSans-74" x="168.652344"/>
       <use xlink:href="#DejaVuSans-61" x="207.861328"/>
       <use xlink:href="#DejaVuSans-72" x="269.140625"/>
      </g>
     </g>
    </g>
    <g id="ytick_4">
     <g id="line2d_12">
      <g>
       <use xlink:href="#m1270b2262f" x="108" y="148.23" style="stroke: #000000; stroke-width: 0.8"/>
      </g>
     </g>
     <g id="text_12">
      <!-- Strings -->
      <g transform="translate(51.925625 153.548906)scale(0.14 -0.14)">
       <defs>
        <path id="DejaVuSans-53" d="M 3425 4513 
L 3425 3897 
Q 3066 4069 2747 4153 
Q 2428 4238 2131 4238 
Q 1616 4238 1336 4038 
Q 1056 3838 1056 3469 
Q 1056 3159 1242 3001 
Q 1428 2844 1947 2747 
L 2328 2669 
Q 3034 2534 3370 2195 
Q 3706 1856 3706 1288 
Q 3706 609 3251 259 
Q 2797 -91 1919 -91 
Q 1588 -91 1214 -16 
Q 841 59 441 206 
L 441 856 
Q 825 641 1194 531 
Q 1563 422 1919 422 
Q 2459 422 2753 634 
Q 3047 847 3047 1241 
Q 3047 1584 2836 1778 
Q 2625 1972 2144 2069 
L 1759 2144 
Q 1053 2284 737 2584 
Q 422 2884 422 3419 
Q 422 4038 858 4394 
Q 1294 4750 2059 4750 
Q 2388 4750 2728 4690 
Q 3069 4631 3425 4513 
z
" transform="scale(0.015625)"/>
        <path id="DejaVuSans-6e" d="M 3513 2113 
L 3513 0 
L 2938 0 
L 2938 2094 
Q 2938 2591 2744 2837 
Q 2550 3084 2163 3084 
Q 1697 3084 1428 2787 
Q 1159 2491 1159 1978 
L 1159 0 
L 581 0 
L 581 3500 
L 1159 3500 
L 1159 2956 
Q 1366 3272 1645 3428 
Q 1925 3584 2291 3584 
Q 2894 3584 3203 3211 
Q 3513 2838 3513 2113 
z
" transform="scale(0.015625)"/>
        <path id="DejaVuSans-67" d="M 2906 1791 
Q 2906 2416 2648 2759 
Q 2391 3103 1925 3103 
Q 1463 3103 1205 2759 
Q 947 2416 947 1791 
Q 947 1169 1205 825 
Q 1463 481 1925 481 
Q 2391 481 2648 825 
Q 2906 1169 2906 1791 
z
M 3481 434 
Q 3481 -459 3084 -895 
Q 2688 -1331 1869 -1331 
Q 1566 -1331 1297 -1286 
Q 1028 -1241 775 -1147 
L 775 -588 
Q 1028 -725 1275 -790 
Q 1522 -856 1778 -856 
Q 2344 -856 2625 -561 
Q 2906 -266 2906 331 
L 2906 616 
Q 2728 306 2450 153 
Q 2172 0 1784 0 
Q 1141 0 747 490 
Q 353 981 353 1791 
Q 353 2603 747 3093 
Q 1141 3584 1784 3584 
Q 2172 3584 2450 3431 
Q 2728 3278 2906 2969 
L 2906 3500 
L 3481 3500 
L 3481 434 
z
" transform="scale(0.015625)"/>
       </defs>
       <use xlink:href="#DejaVuSans-53"/>
       <use xlink:href="#DejaVuSans-74" x="63.476562"/>
       <use xlink:href="#DejaVuSans-72" x="102.685547"/>
       <use xlink:href="#DejaVuSans-69" x="143.798828"/>
       <use xlink:href="#DejaVuSans-6e" x="171.582031"/>
       <use xlink:href="#DejaVuSans-67" x="234.960938"/>
       <use xlink:href="#DejaVuSans-73" x="298.4375"/>
      </g>
     </g>
    </g>
   </g>
   <g id="patch_3">
    <path d="M 108 189 
L 108 25.92 
" style="fill: none; stroke: #000000; stroke-linejoin: miter; stroke-linecap: square"/>
   </g>
   <g id="patch_4">
    <path d="M 777.6 189 
L 777.6 25.92 
" style="fill: none; stroke: #000000; stroke-linejoin: miter; stroke-linecap: square"/>
   </g>
   <g id="patch_5">
    <path d="M 108 189 
L 777.6 189 
" style="fill: none; stroke: #000000; stroke-linejoin: miter; stroke-linecap: square"/>
   </g>
   <g id="patch_6">
    <path d="M 108 25.92 
L 777.6 25.92 
" style="fill: none; stroke: #000000; stroke-linejoin: miter; stroke-linecap: square"/>
   </g>
  </g>
 </g>
 <defs>
  <clipPath id="p9ec3e08ef4">
   <rect x="108" y="25.92" width="669.6" height="163.08"/>
  </clipPath>
 </defs>
</svg>
